{
  "accessors": [
    {
      "bufferView": 2,
      "componentType": 5126,
      "count": 3718,
      "max": [
        14.701777458190918,
        5.056213855743408,
        1.2760649919509888
      ],
      "min": [
        -14.755254745483398,
        -5.107295036315918,
        -1.4645849466323853
      ],
      "type": "VEC3"
    },
    {
      "bufferView": 2,
      "byteOffset": 44616,
      "componentType": 5126,
      "count": 3718,
      "max": [
        0.9998987913131714,
        0.9999837875366211,
        1.0
      ],
      "min": [
        -0.9997317790985107,
        -0.9998467564582825,
        -1.0
      ],
      "type": "VEC3"
    },
    {
      "bufferView": 1,
      "componentType": 5126,
      "count": 3718,
      "max": [
        0.9955840110778809,
        0.9958159923553467
      ],
      "min": [
        0.00418000016361475,
        0.005417999811470509
      ],
      "type": "VEC2"
    },
    {
      "bufferView": 0,
      "componentType": 5125,
      "count": 16524,
      "type": "SCALAR"
    },
    {
      "bufferView": 2,
      "byteOffset": 89232,
      "componentType": 5126,
      "count": 3831,
      "max": [
        14.755254745483398,
        4.3609089851379395,
        1.3030250072479248
      ],
      "min": [
        -14.67750358581543,
        -5.454024791717529,
        -1.4399950504302979
      ],
      "type": "VEC3"
    },
    {
      "bufferView": 2,
      "byteOffset": 135204,
      "componentType": 5126,
      "count": 3831,
      "max": [
        0.999371349811554,
        0.9999392628669739,
        0.9999996423721313
      ],
      "min": [
        -0.9999173283576965,
        -0.999973475933075,
        -1.0
      ],
      "type": "VEC3"
    },
    {
      "bufferView": 1,
      "byteOffset": 29744,
      "componentType": 5126,
      "count": 3831,
      "max": [
        0.9955360293388367,
        0.9957870244979858
      ],
      "min": [
        0.004222999792546034,
        0.004430000204592943
      ],
      "type": "VEC2"
    },
    {
      "bufferView": 0,
      "byteOffset": 66096,
      "componentType": 5125,
      "count": 16032,
      "type": "SCALAR"
    },
    {
      "bufferView": 2,
      "byteOffset": 181176,
      "componentType": 5126,
      "count": 4188,
      "max": [
        14.606358528137207,
        4.154658794403076,
        1.2924749851226807
      ],
      "min": [
        -13.216270446777344,
        -5.436117172241211,
        -1.4605449438095093
      ],
      "type": "VEC3"
    },
    {
      "bufferView": 2,
      "byteOffset": 231432,
      "componentType": 5126,
      "count": 4188,
      "max": [
        0.9993593692779541,
        0.9991273283958435,
        1.0
      ],
      "min": [
        -0.9993690252304077,
        -0.9993158578872681,
        -0.9999998807907104
      ],
      "type": "VEC3"
    },
    {
      "bufferView": 1,
      "byteOffset": 60392,
      "componentType": 5126,
      "count": 4188,
      "max": [
        0.9955310225486755,
        0.9957829713821411
      ],
      "min": [
        0.004160999786108732,
        0.004567999858409166
      ],
      "type": "VEC2"
    },
    {
      "bufferView": 0,
      "byteOffset": 130224,
      "componentType": 5125,
      "count": 16494,
      "type": "SCALAR"
    },
    {
      "bufferView": 2,
      "byteOffset": 281688,
      "componentType": 5126,
      "count": 4980,
      "max": [
        14.643754005432129,
        3.781917095184326,
        1.5252749919891357
      ],
      "min": [
        -14.229719161987305,
        -5.3483781814575195,
        -1.4187250137329102
      ],
      "type": "VEC3"
    },
    {
      "bufferView": 2,
      "byteOffset": 341448,
      "componentType": 5126,
      "count": 4980,
      "max": [
        0.9997555017471313,
        0.9995598793029785,
        1.0
      ],
      "min": [
        -0.9993224740028381,
        -0.9998022317886353,
        -1.0
      ],
      "type": "VEC3"
    },
    {
      "bufferView": 1,
      "byteOffset": 93896,
      "componentType": 5126,
      "count": 4980,
      "max": [
        0.9955350160598755,
        0.9958360195159912
      ],
      "min": [
        0.004211000166833401,
        0.0050479997880756855
      ],
      "type": "VEC2"
    },
    {
      "bufferView": 0,
      "byteOffset": 196200,
      "componentType": 5125,
      "count": 19107,
      "type": "SCALAR"
    },
    {
      "bufferView": 2,
      "byteOffset": 401208,
      "componentType": 5126,
      "count": 7938,
      "max": [
        14.65707015991211,
        5.454024791717529,
        1.3277649879455566
      ],
      "min": [
        -14.267885208129883,
        -5.454024791717529,
        -1.5324749946594238
      ],
      "type": "VEC3"
    },
    {
      "bufferView": 2,
      "byteOffset": 496464,
      "componentType": 5126,
      "count": 7938,
      "max": [
        0.9995579719543457,
        0.9998695254325867,
        1.0
      ],
      "min": [
        -0.999533474445343,
        -0.999973475933075,
        -1.0
      ],
      "type": "VEC3"
    },
    {
      "bufferView": 1,
      "byteOffset": 133736,
      "componentType": 5126,
      "count": 7938,
      "max": [
        0.9955030083656311,
        0.9958410263061523
      ],
      "min": [
        0.004172000102698803,
        0.0044109998270869255
      ],
      "type": "VEC2"
    },
    {
      "bufferView": 0,
      "byteOffset": 272628,
      "componentType": 5125,
      "count": 30771,
      "type": "SCALAR"
    },
    {
      "bufferView": 2,
      "byteOffset": 591720,
      "componentType": 5126,
      "count": 6493,
      "max": [
        14.655797004699707,
        5.454024791717529,
        1.5324749946594238
      ],
      "min": [
        -14.513496398925781,
        -5.107295036315918,
        -1.519534945487976
      ],
      "type": "VEC3"
    },
    {
      "bufferView": 2,
      "byteOffset": 669636,
      "componentType": 5126,
      "count": 6493,
      "max": [
        0.9998987913131714,
        0.9999392628669739,
        1.0
      ],
      "min": [
        -0.9998127818107605,
        -0.9997379779815674,
        -1.0
      ],
      "type": "VEC3"
    },
    {
      "bufferView": 1,
      "byteOffset": 197240,
      "componentType": 5126,
      "count": 6493,
      "max": [
        0.9954910278320313,
        0.9958490133285522
      ],
      "min": [
        0.004184999968856573,
        0.004435999784618616
      ],
      "type": "VEC2"
    },
    {
      "bufferView": 0,
      "byteOffset": 395712,
      "componentType": 5125,
      "count": 23778,
      "type": "SCALAR"
    },
    {
      "bufferView": 2,
      "byteOffset": 747552,
      "componentType": 5126,
      "count": 3254,
      "max": [
        14.633417129516602,
        5.233369827270508,
        1.3227649927139282
      ],
      "min": [
        -14.4722900390625,
        -4.937802791595459,
        -1.489935040473938
      ],
      "type": "VEC3"
    },
    {
      "bufferView": 2,
      "byteOffset": 786600,
      "componentType": 5126,
      "count": 3254,
      "max": [
        0.9991766214370728,
        0.9999837875366211,
        1.0
      ],
      "min": [
        -0.9995647668838501,
        -0.9982921481132507,
        -0.9999998807907104
      ],
      "type": "VEC3"
    },
    {
      "bufferView": 1,
      "byteOffset": 249184,
      "componentType": 5126,
      "count": 3254,
      "max": [
        0.9948989748954773,
        0.9958459734916687
      ],
      "min": [
        0.004157000221312046,
        0.488986998796463
      ],
      "type": "VEC2"
    },
    {
      "bufferView": 0,
      "byteOffset": 490824,
      "componentType": 5125,
      "count": 10638,
      "type": "SCALAR"
    }
  ],
  "asset": {
    "extras": {
      "author": "ameliedr (https://sketchfab.com/ameliedr)",
      "license": "CC-BY-NC-SA-4.0 (http://creativecommons.org/licenses/by-nc-sa/4.0/)",
      "source": "https://sketchfab.com/3d-models/wedding-house-b50ea7562e754143954659a95bb35e29",
      "title": "Wedding house"
    },
    "generator": "Sketchfab-11.8.0",
    "version": "2.0"
  },
  "bufferViews": [
    {
      "buffer": 0,
      "byteLength": 533376,
      "name": "floatBufferViews",
      "target": 34963
    },
    {
      "buffer": 0,
      "byteLength": 275216,
      "byteOffset": 533376,
      "byteStride": 8,
      "name": "floatBufferViews",
      "target": 34962
    },
    {
      "buffer": 0,
      "byteLength": 825648,
      "byteOffset": 808592,
      "byteStride": 12,
      "name": "floatBufferViews",
      "target": 34962
    }
  ],
  "buffers": [
    {
      "byteLength": 1634240,
      "uri": "scene.bin"
    }
  ],
  "extensionsUsed": [
    "KHR_materials_unlit"
  ],
  "images": [
    {
      "uri": "textures/material0000_baseColor.jpeg"
    },
    {
      "uri": "textures/material0001_baseColor.jpeg"
    },
    {
      "uri": "textures/material0002_baseColor.jpeg"
    },
    {
      "uri": "textures/material0003_baseColor.jpeg"
    },
    {
      "uri": "textures/material0004_baseColor.jpeg"
    },
    {
      "uri": "textures/material0005_baseColor.jpeg"
    },
    {
      "uri": "textures/material0006_baseColor.jpeg"
    }
  ],
  "materials": [
    {
      "doubleSided": true,
      "extensions": {
        "KHR_materials_unlit": {}
      },
      "name": "material0000",
      "pbrMetallicRoughness": {
        "baseColorTexture": {
          "index": 0
        },
        "metallicFactor": 0.0
      }
    },
    {
      "doubleSided": true,
      "extensions": {
        "KHR_materials_unlit": {}
      },
      "name": "material0001",
      "pbrMetallicRoughness": {
        "baseColorTexture": {
          "index": 1
        },
        "metallicFactor": 0.0
      }
    },
    {
      "doubleSided": true,
      "extensions": {
        "KHR_materials_unlit": {}
      },
      "name": "material0002",
      "pbrMetallicRoughness": {
        "baseColorTexture": {
          "index": 2
        },
        "metallicFactor": 0.0
      }
    },
    {
      "doubleSided": true,
      "extensions": {
        "KHR_materials_unlit": {}
      },
      "name": "material0003",
      "pbrMetallicRoughness": {
        "baseColorTexture": {
          "index": 3
        },
        "metallicFactor": 0.0
      }
    },
    {
      "doubleSided": true,
      "extensions": {
        "KHR_materials_unlit": {}
      },
      "name": "material0004",
      "pbrMetallicRoughness": {
        "baseColorTexture": {
          "index": 4
        },
        "metallicFactor": 0.0
      }
    },
    {
      "doubleSided": true,
      "extensions": {
        "KHR_materials_unlit": {}
      },
      "name": "material0005",
      "pbrMetallicRoughness": {
        "baseColorTexture": {
          "index": 5
        },
        "metallicFactor": 0.0
      }
    },
    {
      "doubleSided": true,
      "extensions": {
        "KHR_materials_unlit": {}
      },
      "name": "material0006",
      "pbrMetallicRoughness": {
        "baseColorTexture": {
          "index": 6
        },
        "metallicFactor": 0.0
      }
    }
  ],
  "meshes": [
    {
      "name": "Object_0",
      "primitives": [
        {
          "attributes": {
            "NORMAL": 1,
            "POSITION": 0,
            "TEXCOORD_0": 2
          },
          "indices": 3,
          "material": 0,
          "mode": 4
        }
      ]
    },
    {
      "name": "Object_1",
      "primitives": [
        {
          "attributes": {
            "NORMAL": 5,
            "POSITION": 4,
            "TEXCOORD_0": 6
          },
          "indices": 7,
          "material": 1,
          "mode": 4
        }
      ]
    },
    {
      "name": "Object_2",
      "primitives": [
        {
          "attributes": {
            "NORMAL": 9,
            "POSITION": 8,
            "TEXCOORD_0": 10
          },
          "indices": 11,
          "material": 2,
          "mode": 4
        }
      ]
    },
    {
      "name": "Object_3",
      "primitives": [
        {
          "attributes": {
            "NORMAL": 13,
            "POSITION": 12,
            "TEXCOORD_0": 14
          },
          "indices": 15,
          "material": 3,
          "mode": 4
        }
      ]
    },
    {
      "name": "Object_4",
      "primitives": [
        {
          "attributes": {
            "NORMAL": 17,
            "POSITION": 16,
            "TEXCOORD_0": 18
          },
          "indices": 19,
          "material": 4,
          "mode": 4
        }
      ]
    },
    {
      "name": "Object_5",
      "primitives": [
        {
          "attributes": {
            "NORMAL": 21,
            "POSITION": 20,
            "TEXCOORD_0": 22
          },
          "indices": 23,
          "material": 5,
          "mode": 4
        }
      ]
    },
    {
      "name": "Object_6",
      "primitives": [
        {
          "attributes": {
            "NORMAL": 25,
            "POSITION": 24,
            "TEXCOORD_0": 26
          },
          "indices": 27,
          "material": 6,
          "mode": 4
        }
      ]
    }
  ],
  "nodes": [
    {
      "children": [
        1
      ],
      "matrix": [
        1.0,
        0.0,
        0.0,
        0.0,
        0.0,
        2.220446049250313e-16,
        -1.0,
        0.0,
        0.0,
        1.0,
        2.220446049250313e-16,
        0.0,
        0.0,
        0.0,
        0.0,
        1.0
      ],
      "name": "Sketchfab_model"
    },
    {
      "children": [
        2,
        3,
        4,
        5,
        6,
        7,
        8
      ],
      "name": "textured.obj.cleaner.materialmerger.gles"
    },
    {
      "mesh": 0,
      "name": "Object_2"
    },
    {
      "mesh": 1,
      "name": "Object_3"
    },
    {
      "mesh": 2,
      "name": "Object_4"
    },
    {
      "mesh": 3,
      "name": "Object_5"
    },
    {
      "mesh": 4,
      "name": "Object_6"
    },
    {
      "mesh": 5,
      "name": "Object_7"
    },
    {
      "mesh": 6,
      "name": "Object_8"
    }
  ],
  "samplers": [
    {
      "magFilter": 9729,
      "minFilter": 9987,
      "wrapS": 10497,
      "wrapT": 10497
    }
  ],
  "scene": 0,
  "scenes": [
    {
      "name": "Sketchfab_Scene",
      "nodes": [
        0
      ]
    }
  ],
  "textures": [
    {
      "sampler": 0,
      "source": 0
    },
    {
      "sampler": 0,
      "source": 1
    },
    {
      "sampler": 0,
      "source": 2
    },
    {
      "sampler": 0,
      "source": 3
    },
    {
      "sampler": 0,
      "source": 4
    },
    {
      "sampler": 0,
      "source": 5
    },
    {
      "sampler": 0,
      "source": 6
    }
  ]
}
